<svg width="153" height="44" viewBox="0 0 153 44" fill="none" xmlns="http://www.w3.org/2000/svg">
<g clip-path="url(#clip0_23_2407)">
<path d="M0.44 43V0.399998H8.72V35.74H30.44V43H0.44ZM52.4258 43.3C49.0258 43.3 46.1258 42.74 43.7258 41.62C41.3658 40.46 39.4458 38.88 37.9658 36.88C36.5258 34.88 35.4658 32.62 34.7858 30.1C34.1058 27.54 33.7658 24.88 33.7658 22.12V0.399998H42.0458V22.12C42.0458 23.88 42.2058 25.6 42.5258 27.28C42.8858 28.92 43.4658 30.4 44.2658 31.72C45.0658 33.04 46.1258 34.08 47.4458 34.84C48.7658 35.6 50.4058 35.98 52.3658 35.98C54.3658 35.98 56.0258 35.6 57.3458 34.84C58.7058 34.04 59.7658 32.98 60.5258 31.66C61.3258 30.34 61.9058 28.86 62.2658 27.22C62.6258 25.54 62.8058 23.84 62.8058 22.12V0.399998H71.0258V22.12C71.0258 25.04 70.6658 27.78 69.9458 30.34C69.2658 32.9 68.1658 35.16 66.6458 37.12C65.1658 39.04 63.2458 40.56 60.8858 41.68C58.5258 42.76 55.7058 43.3 52.4258 43.3ZM104.746 11.56C104.466 11.28 103.946 10.9 103.186 10.42C102.466 9.94 101.566 9.48 100.486 9.04C99.4458 8.6 98.3058 8.22 97.0658 7.9C95.8258 7.54 94.5658 7.36 93.2858 7.36C91.0458 7.36 89.3458 7.78 88.1858 8.62C87.0658 9.46 86.5058 10.64 86.5058 12.16C86.5058 13.32 86.8658 14.24 87.5858 14.92C88.3058 15.6 89.3858 16.18 90.8258 16.66C92.2658 17.14 94.0658 17.66 96.2258 18.22C99.0258 18.9 101.446 19.74 103.486 20.74C105.566 21.7 107.146 22.98 108.226 24.58C109.346 26.14 109.906 28.22 109.906 30.82C109.906 33.1 109.486 35.06 108.646 36.7C107.806 38.3 106.646 39.6 105.166 40.6C103.686 41.6 102.006 42.34 100.126 42.82C98.2458 43.26 96.2458 43.48 94.1258 43.48C92.0058 43.48 89.8858 43.26 87.7658 42.82C85.6458 42.38 83.6058 41.76 81.6458 40.96C79.6858 40.12 77.8858 39.12 76.2458 37.96L79.9058 30.82C80.2658 31.18 80.9058 31.66 81.8258 32.26C82.7458 32.82 83.8658 33.4 85.1858 34C86.5058 34.56 87.9458 35.04 89.5058 35.44C91.0658 35.84 92.6458 36.04 94.2458 36.04C96.4858 36.04 98.1858 35.66 99.3458 34.9C100.506 34.14 101.086 33.06 101.086 31.66C101.086 30.38 100.626 29.38 99.7058 28.66C98.7858 27.94 97.5058 27.32 95.8658 26.8C94.2258 26.24 92.2858 25.64 90.0458 25C87.3658 24.24 85.1258 23.4 83.3258 22.48C81.5258 21.52 80.1858 20.32 79.3058 18.88C78.4258 17.44 77.9858 15.64 77.9858 13.48C77.9858 10.56 78.6658 8.12 80.0258 6.16C81.4258 4.16 83.3058 2.66 85.6658 1.66C88.0258 0.619998 90.6458 0.099998 93.5258 0.099998C95.5258 0.099998 97.4058 0.319998 99.1658 0.759997C100.966 1.2 102.646 1.78 104.206 2.5C105.766 3.22 107.166 4 108.406 4.84L104.746 11.56ZM151.983 0.399998V43H143.763V24.82H124.443V43H116.163V0.399998H124.443V17.62H143.763V0.399998H151.983Z" fill="white"/>
</g>
<defs>
<clipPath id="clip0_23_2407">
<rect width="153" height="44" fill="white"/>
</clipPath>
</defs>
</svg>
